<?xml version="1.0" encoding="utf-8"?>
<!-- Generator: Adobe Illustrator 26.0.3, SVG Export Plug-In . SVG Version: 6.00 Build 0)  -->
<svg version="1.1" id="Livello_1" xmlns="http://www.w3.org/2000/svg" xmlns:xlink="http://www.w3.org/1999/xlink" x="0px" y="0px"
	 viewBox="0 0 700 700" style="enable-background:new 0 0 700 700;" xml:space="preserve">
<style type="text/css">
	.st0{fill:#FFFFFF;}
</style>
<g>
	<path class="st0" d="M324.7,182c-45.7,0-88.6,21.9-115.5,58.9S174.8,325.5,189,369c14.1,43.5,48.2,77.5,91.7,91.7
		c43.5,14.1,91.1,6.6,128-20.3l71.1,71.1c5.7,5.7,13.9,7.9,21.6,5.8s13.8-8.1,15.8-15.8c2.1-7.7-0.1-16-5.8-21.6l-71.1-71.1
		c20.8-28.6,30.2-63.8,26.5-98.9s-20.3-67.6-46.6-91.2C394.1,194.9,360,181.9,324.7,182L324.7,182z M324.7,422.8
		c-26,0-50.9-10.3-69.3-28.7s-28.7-43.3-28.7-69.3s10.3-50.9,28.7-69.3s43.3-28.7,69.3-28.7s50.9,10.3,69.3,28.7
		s28.7,43.3,28.7,69.3s-10.4,50.9-28.7,69.3C375.6,412.4,350.7,422.8,324.7,422.8z"/>
</g>
</svg>
